<svg width="332" height="112" viewBox="0 0 332 112" fill="none" xmlns="http://www.w3.org/2000/svg">
<path d="M30 18H0V108H30V18Z" fill="#443F60"/>
<path d="M332 18H302V108H332V18Z" fill="#443F60"/>
<path d="M272 18H242V108H272V18Z" fill="#443F60"/>
<path d="M90 18H60V108H90V18Z" fill="#443F60"/>
<path d="M0 48L0 78H90V48L0 48Z" fill="#443F60"/>
<path d="M242 18V48L332 48V18L242 18Z" fill="#443F60"/>
<path d="M120 78V108H210V78H120Z" fill="#443F60"/>
<path d="M120 18V48L210 48V18L120 18Z" fill="#443F60"/>
<path d="M120 78V108H210V78H120Z" fill="#443F60"/>
<path d="M120 18V48L210 48V18L120 18Z" fill="#443F60"/>
<path d="M179 29H151V37H179V29Z" stroke="white" stroke-width="2"/>
<path d="M179 59H151V67H179V59Z" stroke="#443F60" stroke-width="2"/>
<path d="M209 19H121V105H209V19Z" stroke="#443F60" stroke-width="2"/>
<path d="M179 89H151V97H179V89Z" stroke="white" stroke-width="2"/>
<path d="M143 107H127V111H143V107Z" stroke="#443F60" stroke-width="2"/>
<path d="M203 107H187V111H203V107Z" stroke="#443F60" stroke-width="2"/>
<path d="M121 18L120.437 17.1734C120.074 17.4203 119.915 17.875 120.044 18.2944C120.174 18.7138 120.561 19 121 19V18ZM145.971 1V0H145.663L145.409 0.173373L145.971 1ZM184.029 1L184.591 0.173373L184.337 0H184.029V1ZM209 18V19C209.439 19 209.826 18.7138 209.956 18.2944C210.085 17.875 209.926 17.4203 209.563 17.1734L209 18ZM121.563 18.8266L146.534 1.82663L145.409 0.173373L120.437 17.1734L121.563 18.8266ZM145.971 2H184.029V0H145.971V2ZM183.466 1.82663L208.437 18.8266L209.563 17.1734L184.591 0.173373L183.466 1.82663ZM209 17H121V19H209V17Z" fill="#443F60"/>
</svg>
